/* XPM */
static char * alias_xpm[] = {
"16 16 17 1",
" 	c None",
".	c #547AA0",
"+	c #547BA2",
"@	c #547CA4",
"#	c #F0F0F0",
"$	c #547DA6",
"%	c #F5F5F5",
"&	c #547EA8",
"*	c #FBFBFB",
"=	c #F7F7F7",
"-	c #F2F2F2",
";	c #547BA3",
">	c #ECECEC",
",	c #547AA1",
"'	c #E7E7E7",
")	c #54799F",
"!	c #54789D",
"                ",
"                ",
"   ..........   ",
"  ++++++++++++  ",
"  @@@@@##@@@@@  ",
"  $$$$%%%%$$$$  ",
"  &&&&****&&&&  ",
"  &&&==&&==&&&  ",
"  $$$==$$==$$$  ",
"  @@@------@@@  ",
"  ;;>>>>>>>>;;  ",
"  ,,'',,,,'',,  ",
"  ))))))))))))  ",
"   !!!!!!!!!!   ",
"                ",
"                "};
