/* XPM */
static char * class_xpm[] = {
"16 16 18 1",
" 	c None",
".	c #006AD6",
"+	c #006DDC",
"@	c #0070E2",
"#	c #F0F0F0",
"$	c #0072E6",
"%	c #F5F5F5",
"&	c #0075EC",
"*	c #FBFBFB",
"=	c #F7F7F7",
"-	c #0073E8",
";	c #F2F2F2",
">	c #006EDE",
",	c #ECECEC",
"'	c #006BD8",
")	c #E7E7E7",
"!	c #0069D4",
"~	c #0066CE",
"                ",
"                ",
"   ..........   ",
"  ++++++++++++  ",
"  @@@@#####@@@  ",
"  $$$%%%%%%%$$  ",
"  &&***&&&**&&  ",
"  &&==&&&&&&&&  ",
"  --==--------  ",
"  @@;;;@@@;;@@  ",
"  >>>,,,,,,,>>  ",
"  '''')))))'''  ",
"  !!!!!!!!!!!!  ",
"   ~~~~~~~~~~   ",
"                ",
"                "};
