/* XPM */
static char * enum_dec_xpm[] = {
"16 16 18 1",
" 	c None",
".	c #6D43C0",
"+	c #754EC3",
"@	c #7751C4",
"#	c #F0F0F0",
"$	c #7852C5",
"%	c #FFFFFF",
"&	c #F5F5F5",
"*	c #7D58C7",
"=	c #FBFBFB",
"-	c #FDFDFD",
";	c #F7F7F7",
">	c #F2F2F2",
",	c #ECECEC",
"'	c #7048C2",
")	c #E7E7E7",
"!	c #6A40BF",
"~	c #673EBA",
"                ",
"                ",
"   ..........   ",
"  ++++++++++++  ",
"  @@@######@@@  ",
"  $$$%&&&&&$$$  ",
"  ***==*******  ",
"  ***-----****  ",
"  $$$;;;;;$$$$  ",
"  @@@>>@@@@@@@  ",
"  +++,,,,,,+++  ",
"  '''))))))'''  ",
"  !!!!!!!!!!!!  ",
"   ~~~~~~~~~~   ",
"                ",
"                "};
