/* XPM */
static char * function_xpm[] = {
"16 16 17 1",
" 	c None",
".	c #317025",
"+	c #367B28",
"@	c #387F2A",
"#	c #F0F0F0",
"$	c #FFFFFF",
"%	c #F5F5F5",
"&	c #3A832C",
"*	c #FBFBFB",
"=	c #FDFDFD",
"-	c #F7F7F7",
";	c #F2F2F2",
">	c #ECECEC",
",	c #347627",
"'	c #E7E7E7",
")	c #306D24",
"!	c #2F6A23",
"                ",
"                ",
"   ..........   ",
"  ++++++++++++  ",
"  @@@######@@@  ",
"  @@@$%%%%%@@@  ",
"  &&&**&&&&&&&  ",
"  &&&=====&&&&  ",
"  @@@-----@@@@  ",
"  @@@;;@@@@@@@  ",
"  +++>>+++++++  ",
"  ,,,'',,,,,,,  ",
"  ))))))))))))  ",
"   !!!!!!!!!!   ",
"                ",
"                "};
