/* XPM */
static char * interface_xpm[] = {
"16 16 19 1",
" 	c None",
".	c #CC7729",
"+	c #D47D2D",
"@	c #D58032",
"#	c #F0F0F0",
"$	c #D58134",
"%	c #FFFFFF",
"&	c #F5F5F5",
"*	c #D6853B",
"=	c #FBFBFB",
"-	c #FDFDFD",
";	c #D58236",
">	c #F7F7F7",
",	c #F2F2F2",
"'	c #ECECEC",
")	c #CF792A",
"!	c #E7E7E7",
"~	c #CA7629",
"{	c #C37228",
"                ",
"                ",
"   ..........   ",
"  ++++++++++++  ",
"  @@@######@@@  ",
"  $$$%&&&&&$$$  ",
"  *****==*****  ",
"  *****--*****  ",
"  ;;;;;>>;;;;;  ",
"  @@@@@,,@@@@@  ",
"  +++''''''+++  ",
"  )))!!!!!!)))  ",
"  ~~~~~~~~~~~~  ",
"   {{{{{{{{{{   ",
"                ",
"                "};
