/* XPM */
static char * keyword_xpm[] = {
"16 16 24 1",
" 	c None",
".	c #B91C1C",
"+	c #BA1C1C",
"@	c #BE1D1D",
"#	c #C31E1E",
"$	c #C21E1E",
"%	c #F0F0F0",
"&	c #C71E1E",
"*	c #F5F5F5",
"=	c #CC1F1F",
"-	c #FBFBFB",
";	c #CB1F1F",
">	c #CD1F1F",
",	c #FDFDFD",
"'	c #C91F1F",
")	c #F7F7F7",
"!	c #C41E1E",
"~	c #F2F2F2",
"{	c #C01D1D",
"]	c #ECECEC",
"^	c #BB1D1D",
"/	c #E7E7E7",
"(	c #B71C1C",
"_	c #B21B1B",
"                ",
"                ",
"   ......+...   ",
"  @@@@@@@@@@@@  ",
"  #$%%%%%%$$#$  ",
"  &&*******&&&  ",
"  ==--==;---==  ",
"  >>,,>>>>,,>>  ",
"  ''))''''))''  ",
"  !!~~!!!~~~!!  ",
"  {{]]]]]]]{{{  ",
"  ^^//////^^^^  ",
"  ((((((((((((  ",
"   __________   ",
"                ",
"                "};
