/* XPM */
static char * module_xpm[] = {
"16 16 14 1",
" 	c None",
".	c #000000",
"+	c #000100",
"@	c #FFFF83",
"#	c #FFFF00",
"$	c #FFFF28",
"%	c #FFFF6A",
"&	c #FFFF4C",
"*	c #D5D500",
"=	c #CDCD00",
"-	c #A3A300",
";	c #B2B200",
">	c #C3C300",
",	c #919100",
"                ",
"       .+       ",
"      .@#+      ",
"      .@#+      ",
"     .$@##+     ",
"    ..%@##++    ",
"  ..&%%@####++  ",
" .@@@@@%######+ ",
" +*****=-;;;;;+ ",
"  ++>==*;--,..  ",
"    ++=*;-..    ",
"     +>*;,.     ",
"      +*;.      ",
"      +*;.      ",
"       ++       ",
"                "};
