/* XPM */
static char * package_xpm[] = {
"16 16 6 1",
" 	c None",
".	c #000100",
"+	c #050777",
"@	c #242BAE",
"#	c #2E36BF",
"$	c #434FE5",
"                ",
"  ............  ",
" .$$$$$$$$$$$$. ",
" .$##@@+$##@@+. ",
" .$#@@@+$#@@@+. ",
" .$@@@#+$@@@#+. ",
" .$@@##+$@@##+. ",
" .$+++++$+++++. ",
" .$$$$$$$$$$$$. ",
" .$##@@+$##@@+. ",
" .$#@@@+$#@@@+. ",
" .$@@@#+$@@@#+. ",
" .$@@##+$@@##+. ",
" .$+++++$+++++. ",
"  ............  ",
"                "};
