/* XPM */
static char * struct_xpm[] = {
"16 16 19 1",
" 	c None",
".	c #000098",
"+	c #00009E",
"@	c #0000A2",
"#	c #F0F0F0",
"$	c #0000A4",
"%	c #F5F5F5",
"&	c #FFFFFF",
"*	c #0000A8",
"=	c #FBFBFB",
"-	c #FDFDFD",
";	c #0000A6",
">	c #F7F7F7",
",	c #F2F2F2",
"'	c #ECECEC",
")	c #00009A",
"!	c #E7E7E7",
"~	c #000096",
"{	c #000092",
"                ",
"                ",
"   ..........   ",
"  ++++++++++++  ",
"  @@@#######@@  ",
"  $$%&%%%%%%$$  ",
"  **===*******  ",
"  **-------***  ",
"  ;;;>>>>>>>;;  ",
"  @@@@@@@,,,@@  ",
"  ++''''''''++  ",
"  ))!!!!!!!)))  ",
"  ~~~~~~~~~~~~  ",
"   {{{{{{{{{{   ",
"                ",
"                "};
