/* XPM */
static char * template_xpm[] = {
"16 16 14 1",
" 	c None",
".	c #00A2A4",
"+	c #00A9AB",
"@	c #E1FFFF",
"#	c #EBFFFF",
"$	c #F7FFFF",
"%	c #FBFFFF",
"&	c #EFFFFF",
"*	c #E5FFFF",
"=	c #D9FFFF",
"-	c #00A5A7",
";	c #CFFEFF",
">	c #00A0A3",
",	c #009A9C",
"                ",
"                ",
"   ..........   ",
"  ++++++++++++  ",
"  +++@@@@@@+++  ",
"  +++######+++  ",
"  +++++$$+++++  ",
"  +++++%%+++++  ",
"  +++++&&+++++  ",
"  +++++**+++++  ",
"  +++++==+++++  ",
"  -----;;-----  ",
"  >>>>>>>>>>>>  ",
"   ,,,,,,,,,,   ",
"                ",
"                "};
