/* XPM */
static char * union_xpm[] = {
"16 16 18 1",
" 	c None",
".	c #A06B35",
"+	c #A87038",
"@	c #AC7339",
"#	c #F7EFE7",
"$	c #AF753A",
"%	c #F9F4EE",
"&	c #B3783C",
"*	c #FCFAF7",
"=	c #FDFBF8",
"-	c #B1763B",
";	c #FAF5F0",
">	c #F8F1EA",
",	c #A97138",
"'	c #F4EBE1",
")	c #A36D36",
"!	c #F2E6D9",
"~	c #9C6833",
"                ",
"                ",
"   ..........   ",
"  ++++++++++++  ",
"  @@##@@@@##@@  ",
"  $$%%$$$$%%$$  ",
"  &&**&&&&**&&  ",
"  &&==&&&&==&&  ",
"  --;;----;;--  ",
"  @@>>@@@@>>@@  ",
"  ,,'''''''',,  ",
"  )))!!!!!!)))  ",
"  ............  ",
"   ~~~~~~~~~~   ",
"                ",
"                "};
