/* XPM */
static char * variable_xpm[] = {
"16 16 18 1",
" 	c None",
".	c #933093",
"+	c #A035A0",
"@	c #A537A5",
"#	c #FFFFFF",
"$	c #F0F0F0",
"%	c #A637A6",
"&	c #F5F5F5",
"*	c #AC39AC",
"=	c #FBFBFB",
"-	c #FDFDFD",
";	c #F7F7F7",
">	c #F2F2F2",
",	c #ECECEC",
"'	c #9A339A",
")	c #E7E7E7",
"!	c #8E2F8E",
"~	c #8B2E8B",
"                ",
"                ",
"   ..........   ",
"  ++++++++++++  ",
"  @@#$@@@@$$@@  ",
"  %%&#%%%%&&%%  ",
"  **==****==**  ",
"  ***--**--***  ",
"  %%%;;%%;;%%%  ",
"  @@@@>>>>@@@@  ",
"  ++++,,,,++++  ",
"  '''''))'''''  ",
"  !!!!!!!!!!!!  ",
"   ~~~~~~~~~~   ",
"                ",
"                "};
